solid 88_box_ykl2
facet normal 0.0 0.0 -1.0
  outer loop
    vertex 0.0 86.0 0.0
    vertex 2.9999999999999947 83.0 2.114974861910923e-15
    vertex 0.0 0.0 0.0
  endloop
endfacet
facet normal 0.0 0.0 -1.0
  outer loop
    vertex 2.9999999999999947 83.0 2.114974861910923e-15
    vertex 0.0 86.0 0.0
    vertex 86.0 86.0 0.0
  endloop
endfacet
facet normal 0.0 0.0 -1.0
  outer loop
    vertex 2.9999999999999947 83.0 2.114974861910923e-15
    vertex 86.0 86.0 0.0
    vertex 83.0 83.0 2.114974861910923e-15
  endloop
endfacet
facet normal 0.0 0.0 -1.0
  outer loop
    vertex 83.0 83.0 2.114974861910923e-15
    vertex 86.0 86.0 0.0
    vertex 83.0 2.9999999999999996 2.114974861910923e-15
  endloop
endfacet
facet normal 0.0 0.0 -1.0
  outer loop
    vertex 0.0 0.0 0.0
    vertex 2.9999999999999996 2.9999999999999996 2.114974861910923e-15
    vertex 86.0 0.0 0.0
  endloop
endfacet
facet normal 0.0 0.0 -1.0
  outer loop
    vertex 2.9999999999999996 2.9999999999999996 2.114974861910923e-15
    vertex 0.0 0.0 0.0
    vertex 2.9999999999999947 83.0 2.114974861910923e-15
  endloop
endfacet
facet normal 0.0 0.0 -1.0
  outer loop
    vertex 86.0 0.0 0.0
    vertex 2.9999999999999996 2.9999999999999996 2.114974861910923e-15
    vertex 83.0 2.9999999999999996 2.114974861910923e-15
  endloop
endfacet
facet normal 0.0 0.0 -1.0
  outer loop
    vertex 86.0 0.0 0.0
    vertex 83.0 2.9999999999999996 2.114974861910923e-15
    vertex 86.0 86.0 0.0
  endloop
endfacet
facet normal -0.0 -0.0 1.0
  outer loop
    vertex 0.0 0.0 34.0
    vertex 1.9999999999999996 1.9999999999999996 34.0
    vertex 0.0 86.0 34.0
  endloop
endfacet
facet normal -0.0 -0.0 1.0
  outer loop
    vertex 1.9999999999999996 1.9999999999999996 34.0
    vertex 0.0 0.0 34.0
    vertex 86.0 0.0 34.0
  endloop
endfacet
facet normal -0.0 -0.0 1.0
  outer loop
    vertex 1.9999999999999996 1.9999999999999996 34.0
    vertex 86.0 0.0 34.0
    vertex 83.99999999999999 1.9999999999999996 34.0
  endloop
endfacet
facet normal -0.0 -0.0 1.0
  outer loop
    vertex 83.99999999999999 1.9999999999999996 34.0
    vertex 86.0 0.0 34.0
    vertex 83.99999999999999 83.99999999999999 34.0
  endloop
endfacet
facet normal -0.0 -0.0 1.0
  outer loop
    vertex 0.0 86.0 34.0
    vertex 1.9999999999999996 83.99999999999999 34.0
    vertex 86.0 86.0 34.0
  endloop
endfacet
facet normal -0.0 -0.0 1.0
  outer loop
    vertex 1.9999999999999996 83.99999999999999 34.0
    vertex 0.0 86.0 34.0
    vertex 1.9999999999999996 1.9999999999999996 34.0
  endloop
endfacet
facet normal -0.0 -0.0 1.0
  outer loop
    vertex 86.0 86.0 34.0
    vertex 1.9999999999999996 83.99999999999999 34.0
    vertex 83.99999999999999 83.99999999999999 34.0
  endloop
endfacet
facet normal -0.0 -0.0 1.0
  outer loop
    vertex 86.0 86.0 34.0
    vertex 83.99999999999999 83.99999999999999 34.0
    vertex 86.0 0.0 34.0
  endloop
endfacet
facet normal -0.0 -1.0 -0.0
  outer loop
    vertex 86.0 0.0 34.0
    vertex 0.0 0.0 0.0
    vertex 86.0 0.0 0.0
  endloop
endfacet
facet normal -0.0 -1.0 -0.0
  outer loop
    vertex 0.0 0.0 0.0
    vertex 86.0 0.0 34.0
    vertex 0.0 0.0 34.0
  endloop
endfacet
facet normal -1.0 0.0 0.0
  outer loop
    vertex 0.0 86.0 34.0
    vertex 0.0 0.0 0.0
    vertex 0.0 0.0 34.0
  endloop
endfacet
facet normal -1.0 0.0 0.0
  outer loop
    vertex 0.0 0.0 0.0
    vertex 0.0 86.0 34.0
    vertex 0.0 86.0 0.0
  endloop
endfacet
facet normal -0.0 1.0 0.0
  outer loop
    vertex 0.0 86.0 34.0
    vertex 86.0 86.0 0.0
    vertex 0.0 86.0 0.0
  endloop
endfacet
facet normal -0.0 1.0 0.0
  outer loop
    vertex 86.0 86.0 0.0
    vertex 0.0 86.0 34.0
    vertex 86.0 86.0 34.0
  endloop
endfacet
facet normal 1.0 0.0 0.0
  outer loop
    vertex 86.0 86.0 0.0
    vertex 86.0 0.0 34.0
    vertex 86.0 0.0 0.0
  endloop
endfacet
facet normal 1.0 0.0 0.0
  outer loop
    vertex 86.0 0.0 34.0
    vertex 86.0 86.0 0.0
    vertex 86.0 86.0 34.0
  endloop
endfacet
facet normal -0.0 -0.0 1.0
  outer loop
    vertex 1.9999999999999996 1.9999999999999996 2.0000000000000018
    vertex 2.9999999999999996 2.9999999999999996 2.0000000000000018
    vertex 1.9999999999999996 83.99999999999999 2.0000000000000018
  endloop
endfacet
facet normal -0.0 -0.0 1.0
  outer loop
    vertex 2.9999999999999996 2.9999999999999996 2.0000000000000018
    vertex 1.9999999999999996 1.9999999999999996 2.0000000000000018
    vertex 83.99999999999999 1.9999999999999996 2.0000000000000018
  endloop
endfacet
facet normal -0.0 -0.0 1.0
  outer loop
    vertex 1.9999999999999996 83.99999999999999 2.0000000000000018
    vertex 2.9999999999999996 2.9999999999999996 2.0000000000000018
    vertex 2.9999999999999947 83.0 2.0000000000000018
  endloop
endfacet
facet normal -0.0 -0.0 1.0
  outer loop
    vertex 2.9999999999999996 2.9999999999999996 2.0000000000000018
    vertex 83.99999999999999 1.9999999999999996 2.0000000000000018
    vertex 83.0 2.9999999999999996 2.0000000000000018
  endloop
endfacet
facet normal -0.0 -0.0 1.0
  outer loop
    vertex 83.0 2.9999999999999996 2.0000000000000018
    vertex 83.99999999999999 1.9999999999999996 2.0000000000000018
    vertex 83.0 83.0 2.0000000000000018
  endloop
endfacet
facet normal -0.0 -0.0 1.0
  outer loop
    vertex 2.9999999999999947 83.0 2.0000000000000018
    vertex 83.99999999999999 83.99999999999999 2.0000000000000018
    vertex 1.9999999999999996 83.99999999999999 2.0000000000000018
  endloop
endfacet
facet normal -0.0 -0.0 1.0
  outer loop
    vertex 83.99999999999999 83.99999999999999 2.0000000000000018
    vertex 2.9999999999999947 83.0 2.0000000000000018
    vertex 83.0 83.0 2.0000000000000018
  endloop
endfacet
facet normal -0.0 -0.0 1.0
  outer loop
    vertex 83.99999999999999 83.99999999999999 2.0000000000000018
    vertex 83.0 83.0 2.0000000000000018
    vertex 83.99999999999999 1.9999999999999996 2.0000000000000018
  endloop
endfacet
facet normal -0.0 1.0 -0.0
  outer loop
    vertex 1.9999999999999996 1.9999999999999996 34.0
    vertex 83.99999999999999 1.9999999999999996 2.0000000000000018
    vertex 1.9999999999999996 1.9999999999999996 2.0000000000000018
  endloop
endfacet
facet normal -0.0 1.0 -0.0
  outer loop
    vertex 83.99999999999999 1.9999999999999996 2.0000000000000018
    vertex 1.9999999999999996 1.9999999999999996 34.0
    vertex 83.99999999999999 1.9999999999999996 34.0
  endloop
endfacet
facet normal -1.0 0.0 -0.0
  outer loop
    vertex 83.99999999999999 83.99999999999999 34.0
    vertex 83.99999999999999 1.9999999999999996 2.0000000000000018
    vertex 83.99999999999999 1.9999999999999996 34.0
  endloop
endfacet
facet normal -1.0 0.0 -0.0
  outer loop
    vertex 83.99999999999999 1.9999999999999996 2.0000000000000018
    vertex 83.99999999999999 83.99999999999999 34.0
    vertex 83.99999999999999 83.99999999999999 2.0000000000000018
  endloop
endfacet
facet normal -0.0 -1.0 -0.0
  outer loop
    vertex 83.99999999999999 83.99999999999999 34.0
    vertex 1.9999999999999996 83.99999999999999 2.0000000000000018
    vertex 83.99999999999999 83.99999999999999 2.0000000000000018
  endloop
endfacet
facet normal -0.0 -1.0 -0.0
  outer loop
    vertex 1.9999999999999996 83.99999999999999 2.0000000000000018
    vertex 83.99999999999999 83.99999999999999 34.0
    vertex 1.9999999999999996 83.99999999999999 34.0
  endloop
endfacet
facet normal 1.0 -0.0 -0.0
  outer loop
    vertex 1.9999999999999996 83.99999999999999 2.0000000000000018
    vertex 1.9999999999999996 1.9999999999999996 34.0
    vertex 1.9999999999999996 1.9999999999999996 2.0000000000000018
  endloop
endfacet
facet normal 1.0 -0.0 -0.0
  outer loop
    vertex 1.9999999999999996 1.9999999999999996 34.0
    vertex 1.9999999999999996 83.99999999999999 2.0000000000000018
    vertex 1.9999999999999996 83.99999999999999 34.0
  endloop
endfacet
facet normal 1.0 6.168676680573526e-17 0.0
  outer loop
    vertex 2.9999999999999947 83.0 2.114974861910923e-15
    vertex 2.9999999999999996 2.9999999999999996 2.0000000000000018
    vertex 2.9999999999999996 2.9999999999999996 2.114974861910923e-15
  endloop
endfacet
facet normal 1.0 6.168676680573526e-17 0.0
  outer loop
    vertex 2.9999999999999996 2.9999999999999996 2.0000000000000018
    vertex 2.9999999999999947 83.0 2.114974861910923e-15
    vertex 2.9999999999999947 83.0 2.0000000000000018
  endloop
endfacet
facet normal -0.0 1.0 -0.0
  outer loop
    vertex 2.9999999999999996 2.9999999999999996 2.0000000000000018
    vertex 83.0 2.9999999999999996 2.114974861910923e-15
    vertex 2.9999999999999996 2.9999999999999996 2.114974861910923e-15
  endloop
endfacet
facet normal -0.0 1.0 -0.0
  outer loop
    vertex 83.0 2.9999999999999996 2.114974861910923e-15
    vertex 2.9999999999999996 2.9999999999999996 2.0000000000000018
    vertex 83.0 2.9999999999999996 2.0000000000000018
  endloop
endfacet
facet normal -1.0 0.0 -0.0
  outer loop
    vertex 83.0 83.0 2.0000000000000018
    vertex 83.0 2.9999999999999996 2.114974861910923e-15
    vertex 83.0 2.9999999999999996 2.0000000000000018
  endloop
endfacet
facet normal -1.0 0.0 -0.0
  outer loop
    vertex 83.0 2.9999999999999996 2.114974861910923e-15
    vertex 83.0 83.0 2.0000000000000018
    vertex 83.0 83.0 2.114974861910923e-15
  endloop
endfacet
facet normal -0.0 -1.0 -0.0
  outer loop
    vertex 83.0 83.0 2.0000000000000018
    vertex 2.9999999999999947 83.0 2.114974861910923e-15
    vertex 83.0 83.0 2.114974861910923e-15
  endloop
endfacet
facet normal -0.0 -1.0 -0.0
  outer loop
    vertex 2.9999999999999947 83.0 2.114974861910923e-15
    vertex 83.0 83.0 2.0000000000000018
    vertex 2.9999999999999947 83.0 2.0000000000000018
  endloop
endfacet
endsolid 88_box_ykl2
